<svg width="123" height="32" viewBox="0 0 123 32" fill="none" xmlns="http://www.w3.org/2000/svg">
<path d="M21.5886 27.0149C23.8871 27.0149 25.7976 25.6716 26.6035 24.0896V26.6866H30.9021V4H26.6035V13.403C25.7379 11.8209 24.1856 10.7164 21.6782 10.7164C17.7677 10.7164 14.8125 13.7313 14.8125 18.8657V19.1045C14.8125 24.2985 17.7976 27.0149 21.5886 27.0149ZM22.8722 23.6418C20.7229 23.6418 19.2304 22.1194 19.2304 19.0149V18.7761C19.2304 15.6716 20.5737 14.0299 22.9916 14.0299C25.3498 14.0299 26.7229 15.6119 26.7229 18.7164V18.9552C26.7229 22.1194 25.1409 23.6418 22.8722 23.6418Z" fill="#fff"/>
<path d="M37.9534 27.0149C40.4011 27.0149 41.7743 26.0597 42.6698 24.806V26.6866H46.8787V16.5075C46.8787 12.2687 44.1623 10.7164 40.3414 10.7164C36.5205 10.7164 33.5951 12.3582 33.3265 16.0597H37.416C37.5951 14.7164 38.3713 13.8507 40.0728 13.8507C42.0429 13.8507 42.6101 14.8657 42.6101 16.7164V17.3433H40.8489C36.0728 17.3433 32.7295 18.7164 32.7295 22.3582C32.7295 25.6418 35.1175 27.0149 37.9534 27.0149ZM39.2369 24C37.6548 24 36.9683 23.2537 36.9683 22.1194C36.9683 20.4478 38.431 19.9104 40.9384 19.9104H42.6101V21.2239C42.6101 22.9552 41.1474 24 39.2369 24Z" fill="#fff"/>
<path d="M49.647 26.6866H53.9456V11.0746H49.647V26.6866ZM51.7665 8.95522C53.1694 8.95522 54.2441 7.9403 54.2441 6.59702C54.2441 5.25373 53.1694 4.23881 51.7665 4.23881C50.3933 4.23881 49.3187 5.25373 49.3187 6.59702C49.3187 7.9403 50.3933 8.95522 51.7665 8.95522Z" fill="#fff"/>
<path d="M56.9765 26.6866H61.275V4H56.9765V26.6866Z" fill="#fff"/>
<path d="M70.5634 32L78.9917 11.0746H74.8711L71.3499 20.4478L67.5589 11.0746H62.9021L69.1523 25.1953L66.3779 32H70.5634Z" fill="#fff"/>
<path d="M0 32H4.1875L17.0766 0H12.9916L0 32Z" fill="url(#paint0_linear)"/>
<rect x="88" y="8" width="35" height="16" rx="4" fill="#1BEBB9"/>
<path d="M92.738 19H95.213C96.626 19 97.418 18.397 97.418 17.2V17.164C97.418 16.309 97.004 15.832 96.131 15.643C96.86 15.418 97.148 14.914 97.148 14.275V14.239C97.148 13.069 96.365 12.565 95.042 12.565H92.738V19ZM93.908 18.145V16.084H94.988C95.87 16.084 96.239 16.417 96.239 17.083V17.119C96.239 17.785 95.87 18.145 95.069 18.145H93.908ZM93.908 15.274V13.42H94.88C95.645 13.42 95.996 13.681 95.996 14.293V14.329C95.996 14.986 95.69 15.274 94.898 15.274H93.908Z" fill="#121A24"/>
<path d="M98.9388 19H102.881V18.046H100.136V12.565H98.9388V19Z" fill="#121A24"/>
<path d="M107.019 18.127C105.849 18.127 104.994 17.218 104.994 15.814V15.742C104.994 14.356 105.741 13.429 107.001 13.429C108.261 13.429 108.999 14.41 108.999 15.733V15.805C108.999 17.2 108.234 18.127 107.019 18.127ZM107.001 19.09C108.954 19.09 110.241 17.677 110.241 15.796V15.724C110.241 13.834 108.918 12.475 107.001 12.475C105.093 12.475 103.743 13.87 103.743 15.751V15.823C103.743 17.677 105.03 19.09 107.001 19.09Z" fill="#121A24"/>
<path d="M114.686 19.09C116.504 19.09 117.62 18.01 117.62 16.228V15.634H114.821V16.534H116.441C116.405 17.425 115.91 18.154 114.704 18.154C113.354 18.154 112.715 17.209 112.715 15.832V15.76C112.715 14.347 113.444 13.411 114.704 13.411C115.541 13.411 116.117 13.78 116.261 14.635H117.458C117.287 13.096 116.063 12.466 114.686 12.466C112.805 12.466 111.473 13.834 111.473 15.751V15.823C111.473 17.722 112.625 19.09 114.686 19.09Z" fill="#121A24"/>
<defs>
<linearGradient id="paint0_linear" x1="8.88727" y1="-0.222885" x2="8.88727" y2="30" gradientUnits="userSpaceOnUse">
<stop stop-color="#1BEBB9"/>
<stop offset="1" stop-color="#FD9C0C"/>
</linearGradient>
</defs>
</svg>
